<?xml version="1.0" encoding="utf-8"?>
<!-- Generator: Adobe Illustrator 24.3.0, SVG Export Plug-In . SVG Version: 6.00 Build 0)  -->
<svg version="1.1" id="Capa_1" xmlns="http://www.w3.org/2000/svg" xmlns:xlink="http://www.w3.org/1999/xlink" x="0px" y="0px"
	 viewBox="0 0 595.3 841.9" style="enable-background:new 0 0 595.3 841.9;" xml:space="preserve">
<style type="text/css">
	.st0{fill:#020203;}
</style>
<g>
	<path class="st0" d="M318.1,159.1c-5.7-5.7-15.2-5.7-21,0L196.7,259.6c-9,9-2.9,25.2,10.5,25.2h12.4v99.5c0,6.2,5.2,11.4,11.4,11.4
		h45.7c3.3,0,5.7-2.4,5.7-5.7v-53.3c0-3.3,2.4-5.7,5.7-5.7h39c3.3,0,5.7,2.4,5.7,5.7v53.3c0,3.3,2.4,5.7,5.7,5.7h45.7
		c6.2,0,11.4-5.2,11.4-11.4v-99.5h12.4c12.9,0,19.5-15.7,10.5-25.2L318.1,159.1z"/>
	<path class="st0" d="M307.6,62C182.9,62,81.4,163.4,81.4,288.2s101.4,226.2,226.2,226.2s226.2-101.4,226.2-226.2S432.4,62,307.6,62
		z M307.6,480.1c-105.7,0-191.9-86.2-191.9-191.9S201.9,96.3,307.6,96.3s191.9,86.2,191.9,191.9S413.3,480.1,307.6,480.1z"/>
</g>
</svg>
